<svg width="21" height="40" viewBox="0 0 21 40" fill="none" xmlns="http://www.w3.org/2000/svg">
<g clip-path="url(#clip0)">
<path d="M16.1282 20.3809C16.1282 21.8757 15.5352 23.3092 14.4797 24.3662C13.4242 25.4232 11.9927 26.017 10.4999 26.017C9.00722 26.017 7.57564 25.4232 6.52013 24.3662C5.46462 23.3092 4.87165 21.8757 4.87165 20.3809V7.23708C4.87165 5.74228 5.46462 4.30872 6.52013 3.25174C7.57564 2.19476 9.00722 1.60095 10.4999 1.60095C11.9927 1.60095 13.4242 2.19476 14.4797 3.25174C15.5352 4.30872 16.1282 5.74228 16.1282 7.23708V20.3809ZM10.4999 0.0749512C8.60433 0.0777921 6.78723 0.833421 5.44724 2.17609C4.10724 3.51876 3.35375 5.33883 3.35205 7.23708V20.3809C3.35205 22.2798 4.10536 24.101 5.44625 25.4438C6.78714 26.7865 8.60577 27.5409 10.5021 27.5409C12.3984 27.5409 14.217 26.7865 15.5579 25.4438C16.8988 24.101 17.6521 22.2798 17.6521 20.3809V7.23708C17.6504 5.33809 16.8963 3.51736 15.5554 2.17457C14.2145 0.831783 12.3963 0.0766561 10.4999 0.0749512Z" fill="#54616C"/>
<path d="M11.2201 34.5033H9.782V30.8675C10.0199 30.8847 10.2621 30.8933 10.5021 30.8933C10.7422 30.8933 10.9865 30.8933 11.2244 30.8675L11.2201 34.5033ZM14.9581 37.5532H6.0398C6.19748 37.1066 6.48944 36.7199 6.87555 36.4462C7.26165 36.1726 7.72294 36.0254 8.19596 36.025H12.8019C13.2748 36.0258 13.736 36.173 14.122 36.4466C14.5081 36.7202 14.8001 37.1068 14.9581 37.5532ZM20.237 19.6189C20.1372 19.6189 20.0383 19.6386 19.9461 19.6769C19.8539 19.7153 19.7702 19.7714 19.6997 19.8422C19.6292 19.913 19.5734 19.997 19.5354 20.0894C19.4974 20.1818 19.478 20.2809 19.4783 20.3808C19.4783 22.7653 18.5323 25.0522 16.8486 26.7382C15.1648 28.4243 12.8812 29.3716 10.5 29.3716C8.11882 29.3716 5.83516 28.4243 4.15141 26.7382C2.46766 25.0522 1.52174 22.7653 1.52174 20.3808C1.52174 20.1788 1.44158 19.985 1.29888 19.8421C1.15619 19.6992 0.962665 19.6189 0.76087 19.6189C0.559075 19.6189 0.365543 19.6992 0.222852 19.8421C0.0801614 19.985 0 20.1788 0 20.3808C0.00314406 22.7781 0.823064 25.1025 2.32423 26.9699C3.8254 28.8372 5.91795 30.1357 8.25597 30.6508V34.5141H8.19596C7.18659 34.5146 6.21872 34.9164 5.50499 35.6311C4.79126 36.3459 4.39003 37.3151 4.38947 38.3258C4.38947 38.5279 4.46963 38.7217 4.61232 38.8646C4.75501 39.0075 4.94854 39.0878 5.15034 39.0878H15.8497C16.0515 39.0878 16.245 39.0075 16.3877 38.8646C16.5304 38.7217 16.6105 38.5279 16.6105 38.3258C16.6094 37.3149 16.2077 36.3457 15.4936 35.631C14.7796 34.9163 13.8115 34.5146 12.8019 34.5141H12.7419V30.6508C15.0801 30.1358 17.1729 28.8374 18.6745 26.9701C20.176 25.1027 20.9964 22.7783 21 20.3808C21 20.2806 20.9802 20.1813 20.9419 20.0888C20.9035 19.9962 20.8473 19.9121 20.7764 19.8413C20.7055 19.7705 20.6214 19.7144 20.5288 19.6763C20.4363 19.6381 20.3371 19.6186 20.237 19.6189Z" fill="#54616C"/>
<path d="M10.4999 24.3387C11.5481 24.3376 12.553 23.92 13.294 23.1775C14.035 22.4351 14.4515 21.4286 14.4521 20.3789C14.4521 20.1768 14.372 19.983 14.2293 19.8401C14.0866 19.6972 13.893 19.6169 13.6912 19.6169C13.4895 19.6169 13.2959 19.6972 13.1532 19.8401C13.0105 19.983 12.9304 20.1768 12.9304 20.3789C12.9318 20.6995 12.87 21.0172 12.7485 21.3139C12.627 21.6105 12.4482 21.8803 12.2224 22.1076C11.9966 22.3349 11.7282 22.5153 11.4326 22.6386C11.137 22.7618 10.8201 22.8253 10.4999 22.8256C10.2981 22.8256 10.1046 22.9059 9.96187 23.0488C9.81918 23.1917 9.73901 23.3855 9.73901 23.5876C9.73901 23.7896 9.81918 23.9834 9.96187 24.1263C10.1046 24.2692 10.2981 24.3495 10.4999 24.3495" fill="#54616C"/>
<path d="M13.6914 18.5114C13.8916 18.5119 14.0843 18.435 14.2293 18.2968C14.3707 18.1541 14.45 17.9612 14.45 17.7602C14.45 17.5592 14.3707 17.3664 14.2293 17.2237C14.0868 17.0821 13.8942 17.0027 13.6935 17.0027C13.4928 17.0027 13.3002 17.0821 13.1577 17.2237C13.0163 17.3664 12.937 17.5592 12.937 17.7602C12.937 17.9612 13.0163 18.1541 13.1577 18.2968C13.3027 18.435 13.4954 18.5119 13.6956 18.5114" fill="#54616C"/>
</g>
<defs>
<clipPath id="clip0">
<rect width="21" height="39" fill="white" transform="translate(0 0.0771484)"/>
</clipPath>
</defs>
</svg>
