<svg width="34" height="35" viewBox="0 0 34 35" fill="none" xmlns="http://www.w3.org/2000/svg">
<g clip-path="url(#clip0)">
<path d="M16.158 34.0771C12.7956 34.0861 9.49971 33.1401 6.6539 31.3492C3.80808 29.5584 1.52931 26.9962 0.0827283 23.9608C0.0125099 23.807 -0.00902839 23.6355 0.0209979 23.4691C0.0510242 23.3027 0.131182 23.1495 0.250731 23.0299C0.370279 22.9104 0.523508 22.8302 0.689887 22.8002C0.856267 22.7702 1.02785 22.7917 1.18164 22.8619C4.20638 24.3152 7.60747 24.7943 10.916 24.2331C14.2244 23.672 17.2774 22.0983 19.6538 19.729C22.0228 17.3524 23.5964 14.2995 24.1575 10.9911C24.7186 7.68265 24.2397 4.28164 22.7867 1.25684C22.7165 1.10304 22.695 0.931462 22.725 0.765083C22.755 0.598703 22.8352 0.445474 22.9547 0.325926C23.0743 0.206377 23.2275 0.12622 23.3939 0.0961932C23.5603 0.0661669 23.7318 0.0877052 23.8856 0.157924C27.537 1.90343 30.486 4.83915 32.248 8.48263C34.0099 12.1261 34.48 16.2606 33.581 20.2066C32.682 24.1527 30.4674 27.6755 27.3011 30.1962C24.1347 32.7169 20.2051 34.0855 16.158 34.0771ZM2.69732 25.2401C3.28097 26.1217 3.95125 26.9427 4.69817 27.6909C7.73695 30.73 11.8585 32.4374 16.1562 32.4376C20.4539 32.4378 24.5756 30.7307 27.6147 27.692C30.6538 24.6532 32.3612 20.5316 32.3614 16.2339C32.3616 11.9362 30.6545 7.8145 27.6157 4.77544C26.8676 4.02834 26.0466 3.35805 25.1649 2.77458C26.1802 5.90181 26.311 9.24885 25.543 12.4458C24.775 15.6427 23.138 18.5651 20.813 20.8899C18.488 23.2146 15.5655 24.8513 12.3685 25.6191C9.17148 26.3868 5.82446 26.2557 2.69732 25.2401Z" fill="#54616C"/>
<path d="M17.2364 13.1231H6.24722C6.02725 13.1231 5.8163 13.0357 5.66076 12.8802C5.50523 12.7246 5.41785 12.5137 5.41785 12.2937C5.41785 12.0738 5.50523 11.8628 5.66076 11.7073C5.8163 11.5517 6.02725 11.4644 6.24722 11.4644H17.2364C17.4563 11.4644 17.6673 11.5517 17.8228 11.7073C17.9784 11.8628 18.0657 12.0738 18.0657 12.2937C18.0657 12.5137 17.9784 12.7246 17.8228 12.8802C17.6673 13.0357 17.4563 13.1231 17.2364 13.1231Z" fill="#54616C"/>
<path d="M14.7628 17.243H8.72292C8.50296 17.243 8.29201 17.1556 8.13647 17C7.98093 16.8445 7.89355 16.6336 7.89355 16.4136C7.89355 16.1936 7.98093 15.9827 8.13647 15.8271C8.29201 15.6716 8.50296 15.5842 8.72292 15.5842H14.7628C14.9828 15.5842 15.1937 15.6716 15.3493 15.8271C15.5048 15.9827 15.5922 16.1936 15.5922 16.4136C15.5922 16.6336 15.5048 16.8445 15.3493 17C15.1937 17.1556 14.9828 17.243 14.7628 17.243Z" fill="#54616C"/>
<path d="M14.7627 9.00951H8.72285C8.60686 9.02254 8.48942 9.01094 8.37821 8.97546C8.26701 8.93999 8.16454 8.88144 8.07752 8.80364C7.9905 8.72585 7.92088 8.63056 7.87321 8.52401C7.82554 8.41746 7.8009 8.30205 7.8009 8.18532C7.8009 8.0686 7.82554 7.95319 7.87321 7.84664C7.92088 7.74009 7.9905 7.6448 8.07752 7.56701C8.16454 7.48921 8.26701 7.43066 8.37821 7.39519C8.48942 7.35971 8.60686 7.34811 8.72285 7.36114H14.7627C14.8787 7.34811 14.9962 7.35971 15.1074 7.39519C15.2186 7.43066 15.321 7.48921 15.4081 7.56701C15.4951 7.6448 15.5647 7.74009 15.6124 7.84664C15.66 7.95319 15.6847 8.0686 15.6847 8.18532C15.6847 8.30205 15.66 8.41746 15.6124 8.52401C15.5647 8.63056 15.4951 8.72585 15.4081 8.80364C15.321 8.88144 15.2186 8.93999 15.1074 8.97546C14.9962 9.01094 14.8787 9.02254 14.7627 9.00951Z" fill="#54616C"/>
</g>
<defs>
<clipPath id="clip0">
<rect width="34" height="34" fill="white" transform="translate(0 0.0771484)"/>
</clipPath>
</defs>
</svg>
