<svg width="47" height="40" viewBox="0 0 47 40" fill="none" xmlns="http://www.w3.org/2000/svg">
<path d="M28.4 0.441391C28.15 0.27955 27.84 0.279546 27.59 0.464507L10.82 12.4176H0.799999C0.359999 12.4176 0 12.8338 0 13.3424V26.9833C0 27.4919 0.359999 27.9081 0.799999 27.9081H10.83L27.6 39.8612C27.73 39.9536 27.87 39.9999 28.02 39.9999C28.15 39.9999 28.29 39.9652 28.41 39.8843C28.66 39.7224 28.82 39.4103 28.82 39.0751V1.25059C28.81 0.915349 28.65 0.603232 28.4 0.441391ZM1.6 14.2672H10.25V26.0585H1.6V14.2672ZM27.21 37.422L11.85 26.4631V13.8626L27.21 2.90368V37.422Z" fill="#54616C"/>
<path d="M45.56 19.2495H34.71C34.27 19.2495 33.91 19.6657 33.91 20.1743C33.91 20.683 34.27 21.0991 34.71 21.0991H45.56C46 21.0991 46.36 20.683 46.36 20.1743C46.36 19.6657 46 19.2495 45.56 19.2495Z" fill="#54616C"/>
<path d="M34.71 12.163C34.79 12.163 34.88 12.1515 34.96 12.1168L40.64 9.94348C41.06 9.78164 41.29 9.26145 41.15 8.77592C41.01 8.2904 40.56 8.02452 40.14 8.18636L34.46 10.3596C34.04 10.5215 33.81 11.0417 33.95 11.5272C34.06 11.9203 34.37 12.163 34.71 12.163Z" fill="#54616C"/>
<path d="M40.64 30.3933L34.96 28.2201C34.53 28.0582 34.09 28.3241 33.95 28.8096C33.81 29.2951 34.04 29.8153 34.46 29.9772L40.14 32.1505C40.22 32.1852 40.31 32.1967 40.39 32.1967C40.73 32.1967 41.04 31.9539 41.15 31.5609C41.28 31.0869 41.06 30.5552 40.64 30.3933Z" fill="#54616C"/>
</svg>
