<svg width="65" height="65" viewBox="0 0 65 65" fill="none" xmlns="http://www.w3.org/2000/svg">
<g clip-path="url(#clip0)">
<path d="M4.56995 18.54L7.39995 23.38" stroke="#54616C" stroke-width="1.5" stroke-miterlimit="10" stroke-linecap="round"/>
<path d="M8.57996 25.4199L9.86996 27.6199" stroke="#54616C" stroke-width="1.5" stroke-miterlimit="10" stroke-linecap="round"/>
<path d="M12.71 24.24L12.02 23.02" stroke="#54616C" stroke-width="1.5" stroke-miterlimit="10" stroke-linecap="round"/>
<path d="M14.76 19.76L14.08 18.54" stroke="#54616C" stroke-width="1.5" stroke-miterlimit="10" stroke-linecap="round"/>
<path d="M10.8501 20.97L9.56006 18.77" stroke="#54616C" stroke-width="1.5" stroke-miterlimit="10" stroke-linecap="round"/>
<path d="M34.29 1.32007V64.1701" stroke="#54616C" stroke-width="1.5" stroke-miterlimit="10" stroke-linecap="round"/>
<path d="M56.91 16.1601C60.5219 16.1601 63.45 13.232 63.45 9.62008C63.45 6.00814 60.5219 3.08008 56.91 3.08008C53.2981 3.08008 50.37 6.00814 50.37 9.62008C50.37 13.232 53.2981 16.1601 56.91 16.1601Z" stroke="#54616C" stroke-width="1.5" stroke-miterlimit="10" stroke-linecap="round"/>
<path d="M60.09 20.5701L61.28 24.6401" stroke="#54616C" stroke-width="1.5" stroke-miterlimit="10" stroke-linecap="round"/>
<path d="M51.42 19.6201L49.38 23.3301" stroke="#54616C" stroke-width="1.5" stroke-miterlimit="10" stroke-linecap="round"/>
<path d="M45.96 12.8101L41.89 14.0001" stroke="#54616C" stroke-width="1.5" stroke-miterlimit="10" stroke-linecap="round"/>
<path d="M46.91 4.1401L43.2 2.1001" stroke="#54616C" stroke-width="1.5" stroke-miterlimit="10" stroke-linecap="round"/>
<path d="M17.76 53.9401V39.3601" stroke="#54616C" stroke-width="1.5" stroke-miterlimit="10" stroke-linecap="round"/>
<path d="M31.36 26.65L14.86 41.97C14.6408 42.1724 14.3838 42.3297 14.1038 42.4327C13.8238 42.5357 13.5262 42.5826 13.228 42.5705C12.9299 42.5584 12.6371 42.4877 12.3663 42.3623C12.0955 42.237 11.8521 42.0595 11.65 41.84V41.84C11.4478 41.6216 11.2908 41.3655 11.1879 41.0863C11.085 40.8071 11.0382 40.5103 11.0503 40.213C11.0624 39.9157 11.1331 39.6237 11.2583 39.3537C11.3835 39.0838 11.5608 38.8412 11.78 38.64L31.36 20.48" stroke="#54616C" stroke-width="1.5" stroke-miterlimit="10" stroke-linecap="round"/>
<path d="M28.36 53.9399V42.1299H31.36" stroke="#54616C" stroke-width="1.5" stroke-linecap="round" stroke-linejoin="round"/>
<path d="M50.8 53.9401V39.3601" stroke="#54616C" stroke-width="1.5" stroke-miterlimit="10" stroke-linecap="round"/>
<path d="M37.2 26.65L53.7 41.96C53.9192 42.1624 54.1761 42.3197 54.4561 42.4227C54.7362 42.5257 55.0338 42.5726 55.3319 42.5605C55.63 42.5484 55.9229 42.4777 56.1936 42.3523C56.4644 42.227 56.7078 42.0495 56.91 41.83V41.83C57.1121 41.6116 57.2691 41.3555 57.372 41.0763C57.4749 40.7971 57.5217 40.5003 57.5096 40.203C57.4975 39.9057 57.4269 39.6136 57.3016 39.3437C57.1764 39.0738 56.9991 38.8312 56.78 38.63L37.2 20.48" stroke="#54616C" stroke-width="1.5" stroke-miterlimit="10" stroke-linecap="round"/>
<path d="M40.2099 53.9399V42.1299H37.2" stroke="#54616C" stroke-width="1.5" stroke-linecap="round" stroke-linejoin="round"/>
<path d="M18.28 32.65V23.98C18.28 23.7148 18.3854 23.4604 18.5729 23.2729C18.7605 23.0853 19.0148 22.98 19.28 22.98H21.28C21.5452 22.98 21.7996 23.0853 21.9871 23.2729C22.1747 23.4604 22.28 23.7148 22.28 23.98V28.9" stroke="#54616C" stroke-width="1.5" stroke-miterlimit="10" stroke-linecap="round"/>
<path d="M16.99 4.92002C18.3471 4.92266 19.6479 5.46294 20.6075 6.42255C21.5671 7.38217 22.1074 8.68292 22.11 10.04C22.11 11.3979 21.5706 12.7002 20.6104 13.6604C19.6502 14.6206 18.3479 15.16 16.99 15.16H4.86C3.76996 15.16 2.72457 14.727 1.95379 13.9562C1.18302 13.1855 0.75 12.1401 0.75 11.05C0.752648 9.96171 1.18683 8.91888 1.95732 8.15027C2.72781 7.38166 3.77169 6.95002 4.86 6.95002V6.95002C4.85366 5.68464 5.23971 4.4484 5.965 3.4115C6.6903 2.37459 7.71918 1.588 8.91 1.16002C14.61 -0.789982 16.99 4.92002 16.99 4.92002Z" stroke="#54616C" stroke-width="1.5" stroke-linecap="round" stroke-linejoin="round"/>
</g>
<defs>
<clipPath id="clip0">
<rect width="64.19" height="64.92" fill="white"/>
</clipPath>
</defs>
</svg>
