<svg width="44" height="42" viewBox="0 0 44 42" fill="none" xmlns="http://www.w3.org/2000/svg">
<g clip-path="url(#clip0)">
<path d="M43.8563 24.9758C43.7431 24.8209 43.5739 24.7166 43.3851 24.6854C43.1962 24.6541 43.0027 24.6984 42.8459 24.8087C42.1252 25.2345 41.4181 25.6879 40.67 26.0589C39.5274 26.6112 38.3149 27.0041 37.0662 27.2266C35.5748 27.5022 34.0498 27.5439 32.5456 27.3503C31.2744 27.1919 30.0306 26.8606 28.8483 26.3657C26.2335 25.2851 23.9868 23.467 22.3798 21.1313C21.4384 19.7868 20.7326 18.2907 20.2928 16.7076C19.7987 14.956 19.6438 13.1254 19.8366 11.3153C19.9834 9.90759 20.3345 8.52906 20.879 7.2235C20.9702 7.00826 21.0455 6.78616 21.1276 6.56863L21.2394 6.42896C21.4218 6.09466 21.5883 5.75349 21.7822 5.42606C22.7003 3.87897 23.8904 2.51198 25.2947 1.39154C25.3696 1.33216 25.4321 1.25855 25.4786 1.17491C25.5252 1.09128 25.5549 0.999261 25.566 0.904113C25.5771 0.808965 25.5695 0.71255 25.5435 0.620373C25.5175 0.528196 25.4736 0.442062 25.4145 0.366889C25.3553 0.291715 25.282 0.228975 25.1987 0.18225C25.1154 0.135526 25.0237 0.105731 24.9289 0.0945686C24.8341 0.0834059 24.7381 0.0910943 24.6463 0.117193C24.5545 0.143292 24.4687 0.18729 24.3938 0.246677C24.0015 0.56953 23.6115 0.901541 23.2534 1.25187C22.3251 2.12977 21.5106 3.12137 20.8288 4.20334C20.5619 4.62923 20.3361 5.07802 20.0921 5.51535C19.9872 5.71456 19.864 5.9069 19.7796 6.11069C19.0715 7.64548 18.6097 9.28301 18.4111 10.9626C18.2567 12.2675 18.2644 13.5866 18.4339 14.8895C18.6029 16.2979 18.978 17.6736 19.547 18.9721C19.9021 19.777 20.3073 20.5586 20.7604 21.3122C21.7328 22.8934 22.9769 24.2889 24.4348 25.4338C25.8709 26.5754 27.4909 27.462 29.2246 28.0555C30.2225 28.4009 31.2526 28.6441 32.2992 28.7813C33.7777 28.9768 35.276 28.966 36.7515 28.7493C38.3529 28.5254 39.9088 28.0478 41.3611 27.3342C42.148 26.9427 42.8961 26.4687 43.6419 26.0131C43.7287 25.9625 43.8038 25.894 43.8621 25.8121C43.9205 25.7302 43.9608 25.6368 43.9805 25.538C44.0001 25.4393 43.9986 25.3375 43.976 25.2393C43.9534 25.1412 43.9103 25.049 43.8495 24.9689" fill="#54616C"/>
<path d="M8.95447 28.3737C10.0538 29.1629 11.1555 29.9483 12.2594 30.7299C12.7655 31.096 13.1066 31.6484 13.2083 32.2663C13.4934 33.6149 13.8059 34.959 14.1046 36.3077C14.2826 37.1075 14.4589 37.9074 14.6338 38.7073C14.6592 38.801 14.6654 38.899 14.652 38.9952C14.6385 39.0914 14.6058 39.1838 14.5556 39.2669C14.5055 39.35 14.4391 39.422 14.3604 39.4785C14.2817 39.5351 14.1923 39.5749 14.0978 39.5957C13.9999 39.6177 13.8986 39.6201 13.7997 39.6027C13.7008 39.5854 13.6063 39.5487 13.5216 39.4947C13.4369 39.4407 13.3636 39.3704 13.3059 39.288C13.2482 39.2055 13.2073 39.1125 13.1855 39.0141L12.7977 37.2533C12.4465 35.6795 12.096 34.1065 11.7462 32.5342C11.7334 32.4434 11.7025 32.3561 11.6555 32.2774C11.6085 32.1988 11.5463 32.1304 11.4725 32.0762C11.1646 31.8473 10.859 31.6183 10.5602 31.3893C10.2614 31.1603 9.88734 30.8696 9.54521 30.6223C8.83815 30.1048 8.1288 29.5942 7.41489 29.0836L7.29629 28.7744C7.44682 27.5265 7.58596 26.2763 7.73193 25.0261C7.84141 24.0805 7.96002 23.1302 8.0695 22.1846L8.08319 21.8572L8.11512 21.7701C8.16986 21.3397 8.22004 20.9115 8.27021 20.481C8.30215 20.1925 8.32952 19.9017 8.36373 19.5651L7.03399 20.2017L6.64853 20.41L7.12066 20.8886L6.64168 20.4215C6.34517 20.5543 6.0441 20.6825 5.74987 20.8222C5.08842 21.1351 4.42925 21.4542 3.77237 21.7793L3.63551 21.9579C3.45305 22.8944 3.28198 23.8286 3.10864 24.7674V24.8888L2.88055 25.8436C2.83536 26.0293 2.72053 26.1903 2.55999 26.293C2.39945 26.3958 2.2056 26.4324 2.01884 26.3952C1.83208 26.358 1.66683 26.2499 1.55754 26.0933C1.44825 25.9368 1.40335 25.744 1.43221 25.5551C1.65573 24.3766 1.87545 23.1974 2.09138 22.0174C2.1452 21.6424 2.29377 21.2875 2.52295 20.9865C2.75213 20.6855 3.05427 20.4484 3.40059 20.2978C4.07116 19.9819 4.73489 19.659 5.4009 19.3384L5.46704 19.2652L5.65863 19.2171C6.35658 18.8897 7.05224 18.5531 7.75018 18.2256C7.94635 18.1363 8.15972 18.0915 8.3751 18.0945C8.59048 18.0975 8.80255 18.1481 8.9962 18.2428C9.18985 18.3375 9.36031 18.4739 9.49542 18.6423C9.63053 18.8107 9.72697 19.007 9.77786 19.2171C9.81083 19.4731 9.80391 19.7326 9.75733 19.9864C9.65241 20.9664 9.52925 21.9487 9.42205 22.9287V23.2195C9.38555 23.5035 9.3445 23.7897 9.308 24.0736C9.19396 25.0246 9.08144 25.9741 8.97044 26.922C8.92254 27.3388 8.87692 27.7555 8.84271 28.1722L8.95447 28.3737ZM6.42728 36.0489C6.00304 37.077 5.59705 38.1097 5.18422 39.1332C5.11178 39.3115 4.97503 39.4558 4.80125 39.5373C4.62748 39.6188 4.42947 39.6315 4.24678 39.5728C4.07011 39.5155 3.9231 39.3906 3.83769 39.2251C3.75227 39.0596 3.73535 38.8669 3.79061 38.689C3.90009 38.3089 4.05063 37.9403 4.18748 37.5716C4.58435 36.5031 4.9835 35.4345 5.38493 34.366C5.46248 34.1576 5.54687 33.947 5.61302 33.734L5.64267 33.5508L5.78864 33.2669C6.13077 32.351 6.4729 31.4557 6.8059 30.5536L6.86977 30.4711L8.15617 31.4031L8.21547 31.6114C7.80188 32.6326 7.39132 33.6554 6.98381 34.6797L6.97241 34.8949C6.79222 35.2773 6.59607 35.6551 6.43641 36.0398L6.42728 36.0489ZM11.1555 20.9481L11.1897 20.8794C11.5045 21.1473 11.8124 21.4038 12.1157 21.6671C12.8547 22.3014 13.5892 22.9402 14.3259 23.5722C14.5927 23.8011 14.7456 24.0599 14.6338 24.4217C14.5944 24.5378 14.5273 24.6425 14.4384 24.7267C14.3495 24.8109 14.2414 24.872 14.1236 24.9048C14.0058 24.9375 13.8818 24.9408 13.7625 24.9145C13.6431 24.8882 13.5319 24.8329 13.4386 24.7537C12.654 24.0377 11.8717 23.3188 11.0916 22.5967L10.9958 22.3678C11.0392 21.8938 11.0985 21.4198 11.1555 20.9458V20.9481ZM12.1112 25.5116C12.5468 25.9169 12.9893 26.2832 13.6257 26.3656C14.1725 26.4433 14.7284 26.3099 15.1812 25.9924C15.4484 25.813 15.6719 25.5756 15.8353 25.2976C15.9986 25.0197 16.0975 24.7084 16.1247 24.3869C16.1518 24.0654 16.1065 23.7418 15.9922 23.4403C15.8778 23.1387 15.6973 22.8668 15.464 22.6448C15.0923 22.2808 14.6817 21.9579 14.2871 21.6144C13.3292 20.7901 12.3689 19.9658 11.4178 19.1369L11.2262 18.821C11.0842 18.239 10.7566 17.7196 10.2933 17.3418C9.29204 16.5381 8.19951 16.3893 7.02943 16.9617C6.63484 17.1563 6.23569 17.3349 5.84338 17.525C5.38721 17.754 4.93104 17.9829 4.4589 18.2119C3.87272 18.4867 3.28198 18.7546 2.69808 19.0408C2.21733 19.2587 1.79383 19.5861 1.46124 19.9971C1.12865 20.4081 0.896127 20.8913 0.782163 21.4084C0.510741 22.6013 0.325993 23.8149 0.0796601 25.017C-0.0675996 25.5973 -0.00286664 26.2115 0.262128 26.748C0.481612 27.1381 0.811929 27.4536 1.21089 27.6542C1.60984 27.8549 2.05933 27.9316 2.50193 27.8746C2.91488 27.8133 3.30199 27.6354 3.61816 27.3618C3.93434 27.0882 4.16658 26.73 4.28784 26.329C4.44066 25.7314 4.53189 25.1177 4.64593 24.5087C4.72804 24.0667 4.79875 23.6202 4.87402 23.1783C4.8787 23.0614 4.9197 22.9488 4.99128 22.8565C5.06285 22.7641 5.16142 22.6965 5.27317 22.6631L5.50125 22.5235L5.66776 22.4823C5.97795 22.338 6.28815 22.1892 6.60975 22.0243V22.1136C6.50255 23.0295 6.38166 23.9614 6.28815 24.8842C6.1513 26.0291 6.01901 27.1739 5.88216 28.3188C5.87059 28.6085 5.82932 28.8962 5.75899 29.1774C5.50125 29.9399 5.1979 30.6887 4.91736 31.442C4.79419 31.774 4.68927 32.1106 4.56839 32.4449L4.53417 32.4838L3.67201 34.7736C3.27742 35.8314 2.89652 36.8938 2.49053 37.9425C2.31556 38.3627 2.26565 38.8248 2.34683 39.2729C2.43477 39.7231 2.66098 40.1344 2.99369 40.4489C3.3264 40.7635 3.74889 40.9655 4.20184 41.0266C4.65478 41.0877 5.11543 41.0049 5.51908 40.7898C5.92272 40.5746 6.2491 40.2379 6.45237 39.827C6.77397 39.1401 7.03171 38.4348 7.31226 37.7365C7.88247 36.326 8.44964 34.9147 9.01377 33.5027C9.13694 33.2005 9.24186 32.8914 9.35818 32.5869L9.55662 32.3579L9.61592 32.4449C9.82804 32.6029 10.047 32.754 10.2523 32.9212L10.4097 33.1616C10.567 33.8279 10.7153 34.4942 10.8658 35.1628C11.1441 36.4222 11.4269 37.6815 11.6983 38.9432C11.8169 39.5019 11.9834 40.0239 12.4168 40.4292C12.643 40.6489 12.9137 40.817 13.2105 40.9222C13.5073 41.0274 13.8231 41.0671 14.1366 41.0386C14.45 41.0101 14.7537 40.9142 15.0268 40.7572C15.3 40.6003 15.5362 40.3861 15.7195 40.1292C15.908 39.8736 16.0369 39.5789 16.0969 39.2666C16.1569 38.9543 16.1464 38.6326 16.0662 38.3249C15.5826 36.1649 15.1029 34.005 14.627 31.845C14.4356 30.9122 13.8899 30.091 13.1056 29.5552C12.2343 28.9485 11.3745 28.3257 10.5032 27.712L10.396 27.483C10.4484 27.0869 10.4941 26.6908 10.5351 26.2924C10.599 25.7016 10.656 25.1086 10.7153 24.5178L10.7814 24.3301C11.2376 24.7422 11.6687 25.1383 12.1021 25.5413" fill="#54616C"/>
<path d="M11.2925 11.2212C11.5931 11.2303 11.8886 11.301 12.1609 11.4291C12.4332 11.5573 12.6764 11.74 12.8756 11.9662C13.0748 12.1923 13.2257 12.457 13.319 12.744C13.4124 13.0309 13.4462 13.3341 13.4183 13.6346C13.376 14.1818 13.1272 14.6921 12.7229 15.0615C12.3185 15.4308 11.789 15.6313 11.2423 15.6221C10.661 15.6154 10.1061 15.3772 9.69978 14.9598C9.29343 14.5424 9.06888 13.9801 9.07553 13.3965C9.08219 12.8129 9.3195 12.2559 9.73527 11.8479C10.151 11.44 10.7112 11.2146 11.2925 11.2212ZM11.2218 17.083C11.9415 17.0793 12.6441 16.8621 13.2412 16.4587C13.8383 16.0552 14.3032 15.4835 14.5775 14.8155C14.8517 14.1475 14.9231 13.413 14.7826 12.7044C14.6422 11.9957 14.2961 11.3446 13.788 10.8329C13.2798 10.3212 12.6323 9.97178 11.9269 9.82856C11.2214 9.68533 10.4895 9.75472 9.82325 10.028C9.15698 10.3012 8.58607 10.7662 8.18233 11.3643C7.7786 11.9625 7.56006 12.6671 7.5542 13.3896C7.556 14.367 7.94293 15.304 8.63052 15.996C9.31811 16.688 10.2505 17.0787 11.2241 17.083" fill="#54616C"/>
<path d="M27.523 15.1619C27.9018 16.3069 28.5651 17.3361 29.4503 18.1523C30.6988 19.3248 32.3205 20.0159 34.028 20.1031C34.2427 20.1054 34.4574 20.0962 34.6712 20.0757L34.8765 20.1054C35.2003 20.0711 35.5265 20.0436 35.8504 19.9864C36.0409 19.9403 36.2277 19.8799 36.4092 19.8055L36.489 19.833C37.1853 19.648 37.8454 19.346 38.4414 18.94C38.5247 18.8832 38.5945 18.8087 38.6458 18.7218C38.6971 18.6348 38.7287 18.5376 38.7383 18.437C38.7479 18.3364 38.7352 18.2349 38.7013 18.1398C38.6673 18.0447 38.6128 17.9583 38.5418 17.8867L38.389 17.8203L38.3183 17.7195C38.2021 17.6559 38.07 17.6274 37.938 17.6375C37.8061 17.6477 37.6798 17.6961 37.5747 17.7768C36.3718 18.5284 34.9395 18.8202 33.5399 18.5988L33.1544 18.553L32.9947 18.4866C32.3337 18.3149 31.7071 18.0298 31.1427 17.644C29.9696 16.8592 29.124 15.6697 28.766 14.301C28.5429 13.4628 28.5172 12.584 28.6908 11.7342C28.9228 10.4511 29.5823 9.28519 30.5611 8.42778C30.6388 8.36525 30.7031 8.28769 30.7504 8.19971C30.7977 8.11173 30.8268 8.01511 30.8362 7.9156C30.8455 7.81608 30.8349 7.71569 30.8049 7.62038C30.7749 7.52507 30.7261 7.43679 30.6614 7.36077C30.5951 7.2874 30.5147 7.22825 30.4251 7.18686C30.3354 7.14547 30.2384 7.1227 30.1397 7.11992C30.0411 7.11714 29.9429 7.1344 29.8511 7.17068C29.7593 7.20695 29.6757 7.26148 29.6054 7.331C28.793 8.0386 28.1493 8.92033 27.7217 9.9111C27.2942 10.9019 27.0937 11.9764 27.1352 13.0553C27.1526 13.7731 27.2811 14.4838 27.5161 15.1619" fill="#54616C"/>
<path d="M23.445 8.88807L23.3401 9.06437C23.1667 9.75129 22.9523 10.4382 22.8428 11.1503C22.572 12.8879 22.715 14.6652 23.2602 16.3366C23.8765 18.2695 24.9806 20.0095 26.4649 21.3873C27.9493 22.7651 29.7636 23.7339 31.7313 24.1995L32.0073 24.2293L32.0963 24.2911C32.5661 24.3598 33.036 24.4468 33.5081 24.4903C34.9723 24.6115 36.446 24.4562 37.8532 24.0324C38.038 23.9658 38.2192 23.8893 38.396 23.8034H38.5215C39.4066 23.4731 40.2489 23.0372 41.0304 22.5051C41.1146 22.4548 41.1878 22.3878 41.2454 22.3082C41.303 22.2285 41.3439 22.138 41.3656 22.042C41.3873 21.9461 41.3893 21.8467 41.3716 21.7499C41.3538 21.6531 41.3166 21.561 41.2623 21.4791C41.2079 21.3972 41.1376 21.3272 41.0555 21.2735C40.9734 21.2197 40.8812 21.1833 40.7847 21.1664C40.6881 21.1495 40.5891 21.1525 40.4937 21.1752C40.3983 21.1979 40.3086 21.2398 40.2298 21.2984C39.3505 21.886 38.3899 22.3404 37.3787 22.6471L37.2989 22.7181H37.1552C35.9717 23.044 34.7397 23.1549 33.5173 23.0455H33.1934L33.0999 22.9974C32.3426 22.8886 31.5982 22.703 30.8783 22.4433C28.5226 21.582 26.5659 19.8793 25.3822 17.6607C24.1985 15.4421 23.871 12.8634 24.4623 10.4176L24.533 9.99172L24.6356 9.80396C24.9258 8.86445 25.3515 7.97268 25.8992 7.15702C26.4702 6.30467 27.1617 5.54028 27.952 4.8879C28.0945 4.76967 28.1859 4.6007 28.2072 4.41634C28.2284 4.23198 28.1778 4.04651 28.066 3.89873C27.9447 3.74549 27.7686 3.64585 27.5751 3.62105C27.3817 3.59624 27.1863 3.64823 27.0305 3.76593C26.8572 3.90789 26.6861 4.05214 26.5196 4.20556C25.2016 5.40914 24.1756 6.89968 23.5203 8.56292L23.445 8.88807Z" fill="#54616C"/>
</g>
<defs>
<clipPath id="clip0">
<rect width="44" height="41" fill="white" transform="translate(0 0.0771484)"/>
</clipPath>
</defs>
</svg>
