<svg width="44" height="37" viewBox="0 0 44 37" fill="none" xmlns="http://www.w3.org/2000/svg">
<path d="M33.0024 30.4707H28.4272C28.3026 30.4776 28.1779 30.4587 28.0607 30.4151C27.9436 30.3716 27.8364 30.3043 27.7458 30.2175C27.6552 30.1306 27.583 30.026 27.5337 29.91C27.4844 29.794 27.459 29.669 27.459 29.5427C27.459 29.4164 27.4844 29.2914 27.5337 29.1754C27.583 29.0593 27.6552 28.9547 27.7458 28.8679C27.8364 28.781 27.9436 28.7138 28.0607 28.6702C28.1779 28.6267 28.3026 28.6078 28.4272 28.6146H33.0106C35.3999 28.6271 37.6994 27.6937 39.4181 26.0138C41.1368 24.3339 42.1386 22.0405 42.2095 19.6233C42.2804 17.2062 41.4149 14.8567 39.7977 13.0765C38.1805 11.2963 35.9398 10.2265 33.554 10.0954C33.3881 10.0863 33.2278 10.0316 33.0904 9.93707C32.953 9.84259 32.8437 9.71194 32.7742 9.55922C31.6827 7.21711 29.8747 5.2932 27.6181 4.0726C25.3616 2.85199 22.7765 2.39963 20.2459 2.78256C17.7154 3.16549 15.3741 4.36333 13.569 6.19857C11.7638 8.03381 10.5909 10.4088 10.2241 12.9716C10.1927 13.1927 10.0838 13.395 9.91712 13.5414C9.75049 13.6878 9.53731 13.7686 9.31662 13.769C7.3711 13.7493 5.49754 14.5126 4.10809 15.891C3.4201 16.5735 2.87168 17.3865 2.49414 18.2835C2.11659 19.1805 1.91731 20.144 1.90767 21.119C1.89804 22.0939 2.07824 23.0613 2.43799 23.9657C2.79774 24.8702 3.32999 25.6941 4.00435 26.3904C5.36628 27.7966 7.22439 28.5977 9.16991 28.6174H15.5872C15.8218 28.6303 16.0425 28.7337 16.204 28.9064C16.3656 29.079 16.4556 29.3077 16.4556 29.5454C16.4556 29.7832 16.3656 30.0119 16.204 30.1845C16.0425 30.3571 15.8218 30.4605 15.5872 30.4734H9.1672C6.79071 30.4733 4.50717 29.5391 2.79813 27.8678C1.0891 26.1966 0.0881611 23.9189 0.00640776 21.5151C-0.0753455 19.1114 0.768476 16.7694 2.35992 14.9832C3.95136 13.1969 6.16603 12.106 8.53688 11.9405C9.09873 9.11927 10.5118 6.54408 12.5812 4.5702C14.6505 2.59632 17.2742 1.32105 20.09 0.920342C22.9059 0.519637 25.7753 1.01325 28.3022 2.33307C30.8292 3.65289 32.8891 5.73386 34.1979 8.28886C36.9929 8.59836 39.5646 9.98009 41.3838 12.1499C43.2031 14.3197 44.1317 17.1125 43.9786 19.954C43.8254 22.7955 42.6023 25.4696 40.5607 27.4262C38.519 29.3829 35.8142 30.4734 33.0024 30.4734V30.4707Z" fill="#54616C"/>
<path d="M22.0014 36.0428C21.8809 36.0421 21.7618 36.0173 21.6508 35.9699C21.5398 35.9225 21.4391 35.8534 21.3546 35.7665C21.27 35.6797 21.2032 35.5768 21.158 35.4638C21.1128 35.3508 21.0901 35.2298 21.0912 35.1079V20.727C21.0844 20.6009 21.1031 20.4747 21.1461 20.3561C21.1891 20.2376 21.2556 20.1291 21.3414 20.0374C21.4272 19.9457 21.5306 19.8726 21.6452 19.8227C21.7599 19.7728 21.8834 19.7471 22.0082 19.7471C22.133 19.7471 22.2565 19.7728 22.3711 19.8227C22.4858 19.8726 22.5891 19.9457 22.675 20.0374C22.7608 20.1291 22.8272 20.2376 22.8702 20.3561C22.9133 20.4747 22.9319 20.6009 22.9252 20.727V35.1079C22.9262 35.231 22.9031 35.3531 22.8571 35.467C22.811 35.5809 22.743 35.6844 22.657 35.7714C22.571 35.8585 22.4687 35.9273 22.3562 35.9739C22.2436 36.0205 22.123 36.0439 22.0014 36.0428Z" fill="#54616C"/>
<path d="M26.5849 25.8302C26.464 25.8301 26.3444 25.8058 26.233 25.7586C26.1215 25.7114 26.0204 25.6423 25.9355 25.5552L22.0015 21.5709L18.0674 25.5525C17.893 25.7138 17.6639 25.8009 17.4277 25.7957C17.1915 25.7904 16.9664 25.6932 16.7992 25.5244C16.632 25.3555 16.5355 25.1278 16.5298 24.8888C16.5241 24.6498 16.6097 24.4177 16.7687 24.2409L21.363 19.6049C21.5359 19.432 21.7692 19.335 22.0123 19.335C22.2555 19.335 22.4888 19.432 22.6617 19.6049L27.2451 24.2436C27.3722 24.3741 27.4585 24.5396 27.4932 24.7195C27.5279 24.8993 27.5094 25.0855 27.4401 25.2548C27.3709 25.4241 27.2538 25.569 27.1036 25.6713C26.9534 25.7736 26.7768 25.8289 26.5957 25.8302H26.5849Z" fill="#54616C"/>
</svg>
