<svg width="170" height="44" viewBox="0 0 170 44" fill="none" xmlns="http://www.w3.org/2000/svg">
<g clip-path="url(#clip0)">
<ellipse cx="163.54" cy="6.15988" rx="5.30399" ry="5.28" fill="white"/>
<path d="M163.512 0C162.229 3.4741e-06 160.974 0.38078 159.907 1.09423C158.84 1.80767 158.008 2.82177 157.516 4.00842C157.024 5.19506 156.895 6.501 157.144 7.76126C157.393 9.02151 158.01 10.1795 158.917 11.089C159.823 11.9985 160.978 12.6187 162.237 12.8711C163.495 13.1236 164.8 12.9971 165.986 12.5075C167.173 12.0179 168.187 11.1873 168.903 10.1205C169.618 9.05377 170.001 7.79876 170.004 6.51404C170.004 4.79042 169.32 3.13739 168.103 1.91861C166.885 0.69982 165.234 0.0151134 163.512 0.0151134V0ZM160.916 9.79373C160.815 9.89341 160.679 9.94934 160.538 9.94934C160.397 9.94934 160.261 9.89341 160.161 9.79373C159.507 9.13828 159.062 8.30365 158.882 7.39525C158.702 6.48685 158.795 5.54544 159.15 4.68992C159.504 3.8344 160.103 3.10315 160.872 2.58853C161.641 2.07391 162.546 1.79901 163.471 1.79854C163.606 1.80986 163.731 1.87149 163.823 1.97122C163.914 2.07094 163.965 2.20148 163.965 2.33697C163.965 2.47245 163.914 2.603 163.823 2.70272C163.731 2.80245 163.606 2.86408 163.471 2.8754C162.758 2.87477 162.061 3.08584 161.469 3.48188C160.876 3.87791 160.414 4.44112 160.141 5.10017C159.868 5.75922 159.797 6.48449 159.936 7.18414C160.075 7.88379 160.419 8.52636 160.923 9.03049C161.021 9.13191 161.076 9.26737 161.076 9.40833C161.076 9.54929 161.021 9.68475 160.923 9.78617L160.916 9.79373ZM162.471 8.3088C162.37 8.40758 162.234 8.46288 162.093 8.46288C161.952 8.46288 161.817 8.40758 161.716 8.3088C161.478 8.06972 161.291 7.78612 161.163 7.47425C161.035 7.16238 160.971 6.82838 160.972 6.49137C160.965 5.82425 161.223 5.18154 161.688 4.70416C162.154 4.22677 162.789 3.95366 163.456 3.9447C163.53 3.93845 163.605 3.94773 163.676 3.97196C163.746 3.99618 163.811 4.03482 163.866 4.08542C163.921 4.13603 163.965 4.19751 163.995 4.26596C164.025 4.33442 164.04 4.40837 164.04 4.48313C164.04 4.55789 164.025 4.63183 163.995 4.70029C163.965 4.76875 163.921 4.83022 163.866 4.88083C163.811 4.93144 163.746 4.97007 163.676 4.9943C163.605 5.01852 163.53 5.0278 163.456 5.02155C163.075 5.03146 162.714 5.19153 162.451 5.46687C162.188 5.7422 162.044 6.11047 162.052 6.49137C162.05 6.88076 162.199 7.25569 162.467 7.538C162.566 7.63849 162.622 7.7743 162.622 7.91584C162.622 8.05739 162.566 8.1932 162.467 8.29369L162.471 8.3088ZM165.396 7.82516C165.396 7.95944 165.342 8.08823 165.247 8.18318C165.153 8.27813 165.024 8.33147 164.89 8.33147C164.756 8.33147 164.627 8.27813 164.532 8.18318C164.437 8.08823 164.384 7.95944 164.384 7.82516V7.10726H163.629C163.502 7.09628 163.384 7.03798 163.298 6.94389C163.211 6.84979 163.164 6.72675 163.164 6.59905C163.164 6.47136 163.211 6.34832 163.298 6.25422C163.384 6.16013 163.502 6.10183 163.629 6.09085H164.886C164.952 6.09085 165.018 6.10395 165.08 6.1294C165.141 6.15484 165.197 6.19213 165.244 6.23915C165.291 6.28616 165.328 6.34198 165.353 6.40341C165.379 6.46484 165.392 6.53068 165.392 6.59717L165.396 7.82516Z" fill="#DA2128"/>
<path d="M3.47609 30.3181H0V14.4902H10.1905V17.63H3.47609V30.3181ZM10.4358 22.3833C10.5868 17.8832 14.2629 14.1992 19.143 14.1992C24.0231 14.1992 27.3935 17.8492 27.2312 22.4022C27.069 26.9553 23.4004 30.5826 18.524 30.5826C13.6477 30.5826 10.2697 26.9439 10.4358 22.4022V22.3833ZM23.5966 22.4022C23.6985 19.6893 21.785 17.4298 18.9845 17.4298C16.184 17.4298 14.1648 19.644 14.078 22.4022C13.9912 25.1605 15.8858 27.3709 18.6826 27.3709C21.4793 27.3709 23.5061 25.1605 23.5891 22.4022H23.5966ZM99.9687 17.7018H95.1565V14.4902H108.253V17.7018H103.445V30.3181H99.9687V17.7018ZM138.636 30.3181H135.239V19.9387L128.306 30.3181H125.034V14.5015H128.43V24.8658L135.269 14.664C135.306 14.6098 135.356 14.5654 135.414 14.5345C135.471 14.5036 135.536 14.4871 135.601 14.4864H138.621V30.3181H138.636ZM141.059 14.4902H144.803L148.955 21.1818L153.106 14.4902H156.854V30.3181H153.423V19.984L148.974 26.7437L144.482 20.0558V30.3181H141.085L141.059 14.4902ZM41.3281 14.4902V30.2841C41.3281 30.2925 41.3251 30.3006 41.3195 30.3069C41.3139 30.3131 41.3062 30.3171 41.2979 30.3181H37.9011C37.8921 30.3181 37.8834 30.3145 37.877 30.3081C37.8707 30.3017 37.8671 30.2931 37.8671 30.2841V17.63H33.3078V18.8354C33.3078 28.1417 31.7981 30.5145 28.1786 30.5145H26.8312C26.9859 29.4188 26.9972 28.4553 27.1142 27.4918C29.0014 27.4918 30.0506 26.294 30.0506 17.7736V14.4902H41.3281ZM79.165 22.4022C79.2165 20.1867 80.1425 18.0818 81.7403 16.548C83.3381 15.0143 85.4778 14.1765 87.691 14.2181C90.6765 14.2181 92.3069 15.3516 93.7298 16.795L91.5747 19.1905C90.3934 18.0835 89.3744 17.4298 87.5665 17.4298C84.9245 17.4298 82.9053 19.644 82.8147 22.4022C82.7241 25.1605 84.5131 27.3709 87.223 27.3709C89.0309 27.3709 90.1632 26.653 91.4426 25.5194L93.5751 27.8961C91.8842 29.6379 90.0462 30.5826 87.0003 30.5826C82.3429 30.5826 79.014 26.993 79.1763 22.4022H79.165ZM51.5186 19.8707H47.9746V14.5242C47.9746 14.5151 47.971 14.5065 47.9646 14.5001C47.9582 14.4937 47.9496 14.4902 47.9406 14.4902H44.5438C44.5344 14.4901 44.5253 14.4936 44.5183 14.4999C44.5113 14.5061 44.507 14.5148 44.506 14.5242V30.2463C44.5069 30.265 44.5148 30.2828 44.528 30.296C44.5413 30.3093 44.559 30.3172 44.5777 30.3181H50.9449C54.6437 30.3181 57.0214 28.2588 57.1384 25.0056C57.2441 21.9072 55.1909 19.8707 51.5299 19.8707H51.5186ZM51.009 27.1706H47.9896V22.8519H51.1412C52.8773 22.8519 53.7341 23.6075 53.685 24.9565C53.6359 26.4263 52.7263 27.1706 51.0128 27.1706H51.009ZM69.8388 14.2181H66.3589C61.6638 14.3277 58.6859 17.2069 58.5538 21.0835C58.4141 25.0925 61.4826 28.119 66.3589 28.119V30.4768C66.3589 30.4858 66.3625 30.4944 66.3689 30.5008C66.3753 30.5072 66.3839 30.5108 66.3929 30.5108H69.7897C69.7945 30.5113 69.7993 30.5108 69.8039 30.5093C69.8085 30.5079 69.8127 30.5055 69.8162 30.5022C69.8198 30.499 69.8226 30.4951 69.8246 30.4907C69.8265 30.4863 69.8275 30.4816 69.8275 30.4768V28.1152C74.5793 28.051 77.5609 25.0282 77.6968 21.1138C77.8289 17.1351 74.6548 14.2181 69.8275 14.2181H69.8388ZM62.1054 21.1591C62.1846 18.892 63.8868 17.3807 66.3476 17.3164V25.0282C63.8528 24.9867 62.0299 23.5169 62.1054 21.1629V21.1591ZM74.1075 21.1629C74.0169 23.5169 72.3147 24.9829 69.8275 25.0282V17.3164C72.3223 17.3618 74.1792 18.8656 74.1075 21.1591V21.1629ZM117.047 14.4902H110.525V30.2954C110.523 30.2988 110.522 30.3028 110.522 30.3067C110.522 30.3107 110.523 30.3146 110.525 30.3181H113.922C113.927 30.3172 113.932 30.3144 113.936 30.3102C113.939 30.3061 113.941 30.3008 113.941 30.2954V25.5686H116.311C119.851 25.5686 122.765 23.6793 122.894 20.0067C123.01 16.7308 120.803 14.4902 117.036 14.4902H117.047ZM116.53 22.4702H113.941V17.63H116.636C118.368 17.63 119.425 18.4689 119.372 20.0294C119.319 21.4312 118.27 22.4702 116.53 22.4702Z" fill="white"/>
<path d="M30.1979 43.002L30.4093 42.6015C30.4783 42.6824 30.5631 42.7483 30.6585 42.7951C30.7539 42.8419 30.8579 42.8686 30.9641 42.8736C31.2849 42.8736 31.4208 42.7186 31.6434 42.2955L31.7189 42.1557L30.1602 39.1934H30.7376L32.0095 41.706L33.2815 39.1934H33.8589L32.0888 42.5335C31.8322 43.0134 31.5642 43.327 30.9867 43.327C30.8397 43.3323 30.6932 43.3061 30.5571 43.2501C30.4211 43.194 30.2986 43.1094 30.1979 43.002Z" fill="white"/>
<path d="M38.1581 43.2519V39.9117L36.7805 43.2519H36.5729L35.1991 39.9117V43.2519H34.6934V39.1938H35.418L36.6748 42.2468L37.9392 39.1938H38.6639V43.2519H38.1581Z" fill="white"/>
<path d="M42.7959 43.2519V41.3891H40.4257V43.2519H39.9199V39.1938H40.4257V40.9395H42.7959V39.1938H43.2979V43.2519H42.7959Z" fill="white"/>
<path d="M45.0608 39.1934V40.8068H46.1931C46.3592 40.7975 46.5254 40.8223 46.6815 40.8795C46.8377 40.9368 46.9805 41.0253 47.1014 41.1397C47.2222 41.2541 47.3184 41.392 47.3842 41.5449C47.45 41.6979 47.4839 41.8626 47.4839 42.0291C47.4839 42.1956 47.45 42.3603 47.3842 42.5132C47.3184 42.6662 47.2222 42.804 47.1014 42.9184C46.9805 43.0329 46.8377 43.1214 46.6815 43.1786C46.5254 43.2359 46.3592 43.2607 46.1931 43.2514H44.5664V39.1934H45.0608ZM45.0608 41.2564V42.7867H46.1252C46.3299 42.7867 46.5262 42.7053 46.6709 42.5603C46.8157 42.4154 46.897 42.2189 46.897 42.014C46.897 41.809 46.8157 41.6125 46.6709 41.4676C46.5262 41.3227 46.3299 41.2413 46.1252 41.2413L45.0608 41.2564ZM47.8953 39.1934H48.4011V43.2514H47.8953V39.1934Z" fill="white"/>
<path d="M49.6543 43.2519V39.1938H52.3114V39.6435H50.16V40.9508H52.2699V41.4042H50.16V42.8023H52.3114V43.2519H49.6543Z" fill="white"/>
<path d="M55.293 43.2514V39.1934H56.9235C57.2478 39.1934 57.5588 39.3223 57.7881 39.5519C58.0175 39.7815 58.1463 40.0929 58.1463 40.4176C58.1463 40.7423 58.0175 41.0536 57.7881 41.2832C57.5588 41.5128 57.2478 41.6418 56.9235 41.6418H55.7912V43.2514H55.293ZM57.6708 40.4176C57.671 40.3137 57.6499 40.2109 57.6087 40.1156C57.5675 40.0203 57.5071 39.9345 57.4313 39.8636C57.3555 39.7927 57.266 39.7382 57.1682 39.7035C57.0704 39.6688 56.9665 39.6546 56.8631 39.6619H55.7987V41.2073H56.8631C56.9665 41.2145 57.0704 41.2004 57.1682 41.1657C57.266 41.131 57.3555 41.0765 57.4313 41.0055C57.5071 40.9346 57.5675 40.8488 57.6087 40.7535C57.6499 40.6582 57.671 40.5554 57.6708 40.4516" fill="white"/>
<path d="M59.1768 43.2519V39.1938H61.8338V39.6435H59.6825V40.9508H61.7923V41.4042H59.6825V42.8023H61.8338V43.2519H59.1768Z" fill="white"/>
<path d="M67.8236 39.1938V43.2519H62.9473V39.1938H63.4492V42.8023H65.1363V39.1938H65.6383V42.8023H67.3178V39.1938H67.8236Z" fill="white"/>
<path d="M69.0762 43.2519V39.1938H71.7332V39.6435H69.5819V40.9508H71.6917V41.4042H69.5819V42.8023H71.7332V43.2519H69.0762Z" fill="white"/>
<path d="M75.7227 43.2519V41.3891H73.3487V43.2519H72.8467V39.1938H73.3487V40.9395H75.7227V39.1938H76.2246V43.2519H75.7227Z" fill="white"/>
<path d="M77.4814 43.2519V39.1938H77.9872V42.364L80.3197 39.1938H80.8367V43.2519H80.3348V40.0138L77.9683 43.2519H77.4814Z" fill="white"/>
<path d="M81.9092 43.2518L83.0037 41.5969C82.708 41.5783 82.4314 41.4445 82.2331 41.2241C82.0348 41.0037 81.9307 40.7143 81.9431 40.418C81.9373 40.2508 81.9668 40.0842 82.0298 39.9292C82.0928 39.7742 82.1879 39.6343 82.3087 39.5187C82.4295 39.4031 82.5734 39.3143 82.731 39.2583C82.8885 39.2024 83.056 39.1803 83.2226 39.1938H84.8493V43.2518H84.3549V41.6535H83.5397L82.5055 43.2669L81.9092 43.2518ZM84.3474 41.1963V39.6434H83.2755C83.1691 39.636 83.0623 39.6505 82.9617 39.6862C82.8612 39.7218 82.769 39.7778 82.691 39.8506C82.613 39.9235 82.5508 40.0116 82.5083 40.1095C82.4658 40.2075 82.4438 40.3131 82.4438 40.4199C82.4438 40.5267 82.4658 40.6323 82.5083 40.7302C82.5508 40.8281 82.613 40.9163 82.691 40.9891C82.769 41.0619 82.8612 41.1179 82.9617 41.1536C83.0623 41.1892 83.1691 41.2038 83.2755 41.1963H84.3474Z" fill="white"/>
<path d="M87.6982 42.8433C88.1851 42.8131 88.4531 42.6091 88.6305 41.2337L88.8796 39.1934H91.3593V42.7867H91.7367V43.9844H91.2234V43.2287H88.204V43.9844H87.6982V42.8433ZM88.5059 42.7867H90.8535V39.6279H89.3438L89.1438 41.2526C89.0381 42.1103 88.8192 42.56 88.521 42.7867" fill="white"/>
<path d="M92.4014 42.8736C92.8882 42.8736 93.1562 42.6091 93.3336 41.2337L93.5827 39.1934H96.0548V43.2514H95.5491V39.643H94.0394L93.8394 41.2677C93.6204 43.0512 93.1336 43.327 92.4089 43.327L92.4014 42.8736Z" fill="white"/>
<path d="M97.1309 43.2518L98.2254 41.5969C97.9304 41.5774 97.6547 41.4432 97.4572 41.2229C97.2597 41.0026 97.1561 40.7137 97.1686 40.418C97.1622 40.251 97.1912 40.0845 97.2538 39.9295C97.3164 39.7745 97.411 39.6345 97.5316 39.5188C97.6521 39.4032 97.7958 39.3144 97.9531 39.2583C98.1105 39.2023 98.2779 39.1803 98.4443 39.1938H100.075V43.2518H99.569V41.6536H98.7538L97.7196 43.267L97.1309 43.2518ZM99.569 41.1964V39.6434H98.4971C98.3907 39.636 98.2839 39.6506 98.1834 39.6862C98.0829 39.7219 97.9907 39.7778 97.9127 39.8507C97.8347 39.9235 97.7725 40.0116 97.73 40.1095C97.6874 40.2075 97.6655 40.3131 97.6655 40.4199C97.6655 40.5267 97.6874 40.6323 97.73 40.7302C97.7725 40.8282 97.8347 40.9163 97.9127 40.9891C97.9907 41.062 98.0829 41.1179 98.1834 41.1536C98.2839 41.1892 98.3907 41.2038 98.4971 41.1964H99.569Z" fill="white"/>
<path d="M102.83 43.2519L104.668 41.1209L102.977 39.1938H103.608L105.238 41.1057V39.1938H105.744V41.1057L107.378 39.1938H108.012L106.314 41.1209L108.156 43.2519H107.525L105.985 41.4269L105.744 41.7065V43.2519H105.238V41.7065L104.996 41.4269L103.457 43.2519H102.83Z" fill="white"/>
<path d="M109.034 43.2519V39.1938H109.54V42.364L111.872 39.1938H112.389V43.2519H111.888V40.0138L109.521 43.2519H109.034Z" fill="white"/>
<path d="M113.353 42.6546L113.647 42.3334C113.798 42.5071 113.986 42.6455 114.197 42.7388C114.407 42.8322 114.636 42.8782 114.866 42.8737C115.504 42.8737 115.885 42.5828 115.885 42.118C115.885 41.6533 115.455 41.4001 114.836 41.4001H114.009V40.9505H114.836C115.376 40.9505 115.821 40.7502 115.821 40.2817C115.821 39.8132 115.383 39.5865 114.847 39.5865C114.631 39.5812 114.417 39.6223 114.218 39.707C114.02 39.7918 113.842 39.9182 113.696 40.0777L113.417 39.7641C113.602 39.5603 113.829 39.3988 114.083 39.2906C114.336 39.1823 114.61 39.1299 114.885 39.1368C115.677 39.1368 116.334 39.5147 116.334 40.2175C116.324 40.4528 116.231 40.677 116.072 40.85C115.912 41.023 115.696 41.1336 115.462 41.1621C115.714 41.1826 115.949 41.2961 116.122 41.4804C116.295 41.6647 116.394 41.9068 116.398 42.1596C116.398 42.8359 115.787 43.3309 114.889 43.3309C114.602 43.3437 114.317 43.2895 114.055 43.1728C113.793 43.0561 113.561 42.88 113.379 42.6583" fill="white"/>
<path d="M120.384 43.2519V41.3891H118.014V43.2519H117.508V39.1938H118.014V40.9395H120.384V39.1938H120.886V43.2519H120.384Z" fill="white"/>
<path d="M122.143 43.2519V39.1938H122.648V42.364L124.981 39.1938H125.498V43.2519H124.996V40.0138L122.629 43.2519H122.143Z" fill="white"/>
</g>
<defs>
<clipPath id="clip0">
<rect width="170" height="44" fill="white"/>
</clipPath>
</defs>
</svg>
