<?xml version="1.0" encoding="UTF-8"?> <svg xmlns="http://www.w3.org/2000/svg" viewBox="0 0 602.24 153.05"> <defs> <style>.cls-1{fill:#221a52;}.cls-2{fill:#d40a10;fill-rule:evenodd;}.cls-3{fill:#fff;}</style> </defs> <title>logo</title> <g id="Слой_2" data-name="Слой 2"> <g id="Layer_1" data-name="Layer 1"> <path class="cls-1" d="M143,153.05a7.17,7.17,0,0,1-2.84-.55,6.22,6.22,0,0,1-2.2-1.53,6.47,6.47,0,0,1-1.43-2.31,8.38,8.38,0,0,1,0-5.79,6.24,6.24,0,0,1,1.43-2.3,6.12,6.12,0,0,1,2.2-1.53,6.91,6.91,0,0,1,2.84-.56,7,7,0,0,1,2.86.56,6.36,6.36,0,0,1,2.2,1.53,6.55,6.55,0,0,1,1.42,2.3,8.62,8.62,0,0,1,0,5.79,6.81,6.81,0,0,1-1.42,2.31,6.46,6.46,0,0,1-2.2,1.53A7.3,7.3,0,0,1,143,153.05Zm0-1.56a5.23,5.23,0,0,0,2.16-.44,4.71,4.71,0,0,0,1.6-1.21A5.7,5.7,0,0,0,147.8,148a6.88,6.88,0,0,0,.36-2.27,7.3,7.3,0,0,0-.36-2.29,5.54,5.54,0,0,0-1.06-1.8,4.88,4.88,0,0,0-1.6-1.2A5.35,5.35,0,0,0,143,140a5.16,5.16,0,0,0-2.13.44,4.8,4.8,0,0,0-1.64,1.2,5.46,5.46,0,0,0-1.05,1.8,7.78,7.78,0,0,0-.34,2.29,7.33,7.33,0,0,0,.34,2.27,5.62,5.62,0,0,0,1.05,1.82,4.63,4.63,0,0,0,1.64,1.21A5,5,0,0,0,143,151.49Zm23.39,1.29-4.5-6-4.5,6h-2.13l5.5-7.21-5.2-6.88h2.14l4.18,5.66L166,138.7h2.13L163,145.54l5.47,7.25Zm8.6,0V138.7h5.65a5,5,0,0,1,1.88.34,4.15,4.15,0,0,1,1.39.92,4,4,0,0,1,.85,1.35,4.81,4.81,0,0,1,0,3.29,3.93,3.93,0,0,1-.87,1.34,4.09,4.09,0,0,1-1.4.92,4.68,4.68,0,0,1-1.86.34h-3.9v5.59Zm5.44-7.16a2.83,2.83,0,0,0,2-.72,2.62,2.62,0,0,0,.78-2,2.51,2.51,0,0,0-.78-1.93,2.75,2.75,0,0,0-2-.75h-3.69v5.36Zm19.93,7.16-1.25-3.11h-7l-1.24,3.11h-2l5.67-14.09h2.18l5.68,14.09Zm-4.74-12.26-3,7.57h6Zm23.13,12.26v-6.47h-8.25v6.47h-1.75V138.7h1.75v6.06h8.25V138.7h1.76v14.09Zm19.58,0v-6.47h-8.23v6.47h-1.76V138.7h1.76v6.06h8.23V138.7h1.76v14.09Zm11.35-14.09v5.61h3.91a4.73,4.73,0,0,1,1.86.33,4.56,4.56,0,0,1,1.4.92,3.88,3.88,0,0,1,.86,1.35,4.4,4.4,0,0,1,.3,1.64,4.28,4.28,0,0,1-.3,1.64,3.75,3.75,0,0,1-.84,1.36,4,4,0,0,1-1.38.91,5.14,5.14,0,0,1-1.89.33h-5.65V138.7Zm0,7.17v5.35h3.71a2.7,2.7,0,0,0,2-.73,2.52,2.52,0,0,0,.79-1.95,2.56,2.56,0,0,0-.79-1.95,2.73,2.73,0,0,0-2-.73Zm9.85,6.92V138.7h1.76v14.09Zm9.6,0V138.7h9.23v1.57h-7.48v4.54h7.32v1.57h-7.32v4.85h7.48v1.56Zm33.23.26a7.39,7.39,0,0,1-2.84-.53A7,7,0,0,1,297.2,151a6.4,6.4,0,0,1-1.55-2.3,7.41,7.41,0,0,1-.57-3,7.49,7.49,0,0,1,.57-3,6.51,6.51,0,0,1,1.55-2.3,6.77,6.77,0,0,1,2.29-1.49,7.7,7.7,0,0,1,2.84-.52,7.44,7.44,0,0,1,1.72.21,8,8,0,0,1,1.45.58,7.14,7.14,0,0,1,2.16,2l-1.47.81a5.1,5.1,0,0,0-1.64-1.47,4.49,4.49,0,0,0-2.22-.58,5.32,5.32,0,0,0-2.16.43,5.1,5.1,0,0,0-1.72,1.19,5.47,5.47,0,0,0-1.14,1.8,6.2,6.2,0,0,0-.41,2.31,6.12,6.12,0,0,0,.41,2.3,5.46,5.46,0,0,0,1.14,1.81,5,5,0,0,0,1.72,1.2,5.6,5.6,0,0,0,2.16.42,4.34,4.34,0,0,0,2.22-.59,4.52,4.52,0,0,0,1.64-1.46l1.49.83a7.37,7.37,0,0,1-2.18,2A6,6,0,0,1,302.33,153.05Zm12.15-.26V138.7h1.75v11l8.11-11h1.82v14.09H324.4V141.56l-8.24,11.23Zm26.18.26a7.42,7.42,0,0,1-2.85-.53,7.25,7.25,0,0,1-2.29-1.49,6.9,6.9,0,0,1-1.55-2.3,7.76,7.76,0,0,1-.55-3,7.84,7.84,0,0,1,.55-3,6.93,6.93,0,0,1,3.84-3.79,7.74,7.74,0,0,1,2.85-.52,6.36,6.36,0,0,1,3.17.79,6.59,6.59,0,0,1,1.23.91,7.58,7.58,0,0,1,.95,1.1l-1.47.81a5.13,5.13,0,0,0-1.65-1.47,4.47,4.47,0,0,0-2.22-.58,5.28,5.28,0,0,0-2.15.43,5.22,5.22,0,0,0-2.86,3,6.28,6.28,0,0,0-.41,2.31,6.21,6.21,0,0,0,.41,2.3,5.44,5.44,0,0,0,1.13,1.81,5.36,5.36,0,0,0,1.74,1.2,5.55,5.55,0,0,0,2.15.42,4.32,4.32,0,0,0,2.22-.59,4.54,4.54,0,0,0,1.65-1.46l1.49.83a7.38,7.38,0,0,1-2.2,2A5.88,5.88,0,0,1,340.66,153.05Zm15.64-.26V140.27h-4.46V138.7h10.69v1.57h-4.46v12.52Zm13.1,0V138.7h9.24v1.57h-7.47v4.54h7.32v1.57h-7.32v4.85h7.47v1.56Zm28.61,0V141.2l-4.79,11.59h-.72l-4.77-11.59v11.59H386V138.7h2.5l4.39,10.61,4.39-10.61h2.53v14.09Zm11.35-14.09v5.61h3.91a4.72,4.72,0,0,1,1.85.33,4.21,4.21,0,0,1,1.4.92,3.85,3.85,0,0,1,.87,1.35,4.75,4.75,0,0,1,.31,1.64,4.61,4.61,0,0,1-.31,1.64,4.1,4.1,0,0,1-.85,1.36,4,4,0,0,1-1.39.91,5.12,5.12,0,0,1-1.88.33H407.6V138.7Zm0,7.17v5.35h3.71a2.76,2.76,0,0,0,2-.73,2.58,2.58,0,0,0,.77-1.95,2.62,2.62,0,0,0-.77-1.95,2.8,2.8,0,0,0-2-.73Zm9.84,6.92V138.7H421v14.09Z"></path> <path class="cls-1" d="M12.32,107.19H0v-56H36.05V62.3H12.32ZM37,79.19c.54-15.93,13.56-29,30.85-29S97,63.11,96.47,79.19c-.55,15.91-13.58,29-30.85,29S36.38,95.26,37,79.19Zm46.63,0c.36-9.6-6.41-17.6-16.33-17.6s-17.08,7.83-17.42,17.6c-.35,9.6,6.43,17.58,16.32,17.58S83.26,88.94,83.59,79.19ZM354.16,62.56h-17V51.19h46.4V62.56h-17v44.64H354.16Zm137,44.64H479V70.47l-24.47,36.72H443v-56h12.16V87.9l24.65-36.71h11.42Zm8.59-56H513l14.73,23.68,14.72-23.68h13.28v56H543.54V70.62L527.77,94.55h-.32l-15.6-23.67v36.32H499.78Zm-353.31,0v56H134.15V62.3H118v4.26c0,32.94-5.38,41.34-18.16,41.34a32.8,32.8,0,0,1-4.72-.37c.49-3.73.54-7,.95-10.34,6.66,0,10.4-4.24,10.4-34.39V51.19Zm134,28a29.68,29.68,0,0,1,30.21-29c10.57,0,16.34,4,21.36,9.12l-7.64,8.49c-4.19-3.92-7.79-6.24-14.2-6.24-9.42,0-16.51,7.83-16.83,17.6-.34,9.6,6,17.58,15.62,17.58,6.4,0,10.42-2.54,14.94-6.55l7.55,8.41c-6,6.16-12.49,9.51-23.29,9.51C291.68,108.14,279.89,95.43,280.45,79.19Zm-97.92-9H170v-19H157.65v56h22.8c13.11,0,21.53-7.29,21.94-18.8C202.78,77.44,195.5,70.23,182.53,70.23Zm-1.86,25.84H170V80.78h11.17c6.14,0,9.18,2.72,9,7.45C190,93.43,186.75,96.06,180.68,96.06Zm66.7-45.84H235v0c-16.64.38-27.18,10.57-27.66,24.3C206.9,88.71,217.78,99.43,235,99.43v8.47h12.33V99.41c16.83-.3,27.38-10.91,27.87-24.78C275.73,60.54,264.48,50.22,247.37,50.22ZM220,74.79c.28-8.06,6.3-13.36,15-13.59V88.46C226.21,88.32,219.75,83.06,220,74.79Zm42.51,0c-.32,8.28-6.34,13.53-15.16,13.67V61.19C256.21,61.34,262.8,66.67,262.53,74.79Zm152.13-23.6H391.49v56H403.7V90.39h8.39c12.55,0,22.86-6.71,23.31-19.69C435.82,59.11,428,51.19,414.66,51.19Zm-1.78,28.24H403.7V62.3h9.53c6.15,0,9.88,3,9.7,8.49C422.76,75.75,419,79.43,412.88,79.43Z"></path> <path class="cls-2" d="M579.25,0a23,23,0,1,0,23,23A23,23,0,0,0,579.25,0Z"></path> <path class="cls-3" d="M570.13,34.74a1.83,1.83,0,0,1-2.65,0h0c-.38-.37-.79-.86-1.21-1.34s-.76-1-1.08-1.53A16.94,16.94,0,0,1,562.6,23h0A16.66,16.66,0,0,1,579.25,6.34h0a1.88,1.88,0,1,1,0,3.75h0v0A13,13,0,0,0,566.33,23h0a12.85,12.85,0,0,0,2,6.93,12.44,12.44,0,0,0,.82,1.16,6.68,6.68,0,0,0,1,1h0A1.84,1.84,0,0,1,570.13,34.74Zm5.48-5.47a1.8,1.8,0,0,1-2.63,0h0c-.06,0-.08-.06-.14-.12a5,5,0,0,1-.51-.6,5.77,5.77,0,0,1-.59-.79A8.93,8.93,0,0,1,570.36,23h0a8.93,8.93,0,0,1,2.61-6.3s.1-.06.1-.1a8.77,8.77,0,0,1,6.17-2.47v0h0a1.91,1.91,0,0,1,1.89,1.87,1.88,1.88,0,0,1-1.89,1.86h0a5.28,5.28,0,0,0-3.56,1.44c0,.06,0,.06-.08.1A5.18,5.18,0,0,0,574.08,23h0a5.29,5.29,0,0,0,.81,2.77,1.94,1.94,0,0,0,.35.5c.08.1.17.21.29.33s0,0,.08.06h0A1.89,1.89,0,0,1,575.6,29.26Zm10.31-5.92v4.41a1.76,1.76,0,0,1-1.79,1.76,1.79,1.79,0,0,1-1.82-1.76V25.11h-2.6a1.76,1.76,0,1,1,0-3.53h4.41a1.8,1.8,0,0,1,1.24.5,1.7,1.7,0,0,1,.54,1.23Z"></path> </g> </g> </svg> 